<?xml version="1.0" encoding="UTF-8" standalone="no"?>
<svg
   xmlns:i="&amp;ns_ai;"
   xmlns:dc="http://purl.org/dc/elements/1.1/"
   xmlns:cc="http://creativecommons.org/ns#"
   xmlns:rdf="http://www.w3.org/1999/02/22-rdf-syntax-ns#"
   xmlns:svg="http://www.w3.org/2000/svg"
   xmlns="http://www.w3.org/2000/svg"
   xmlns:sodipodi="http://sodipodi.sourceforge.net/DTD/sodipodi-0.dtd"
   xmlns:inkscape="http://www.inkscape.org/namespaces/inkscape"
   width="210mm"
   height="297mm"
   viewBox="0 0 210 297"
   version="1.1"
   id="svg8"
   inkscape:version="1.0.1 (3bc2e813f5, 2020-09-07)"
   sodipodi:docname="logo-notext.svg">
  <defs
     id="defs2">
	
	
</defs>
  <sodipodi:namedview
     id="base"
     pagecolor="#ffffff"
     bordercolor="#666666"
     borderopacity="1.0"
     inkscape:pageopacity="0.0"
     inkscape:pageshadow="2"
     inkscape:zoom="1.979899"
     inkscape:cx="319.69316"
     inkscape:cy="463.23771"
     inkscape:document-units="mm"
     inkscape:current-layer="g98"
     inkscape:document-rotation="0"
     showgrid="false"
     inkscape:window-width="1267"
     inkscape:window-height="860"
     inkscape:window-x="156"
     inkscape:window-y="0"
     inkscape:window-maximized="0" />
  <metadata
     id="metadata5">
    <rdf:RDF>
      <cc:Work
         rdf:about="">
        <dc:format>image/svg+xml</dc:format>
        <dc:type
           rdf:resource="http://purl.org/dc/dcmitype/StillImage" />
        <dc:title></dc:title>
      </cc:Work>
    </rdf:RDF>
  </metadata>
  <g
     inkscape:label="Layer 1"
     inkscape:groupmode="layer"
     id="layer1">
    <g
       i:extraneous="self"
       id="g98"
       transform="matrix(0.26458333,0,0,0.26458333,61.71841,98.627973)"><g
   id="g281">
  <g
     id="g72">
			<g
   id="g64">
				<g
   id="g62">
					<path
   class="st0"
   d="m 49.28,56.35 v 6.44 H 18.17 c -1.78,0 -3.23,-1.45 -3.23,-3.23 0,-1.67 1.29,-3.04 2.92,-3.21 z"
   id="path56" />

					<path
   class="st0"
   d="m 49.28,67.89 v 6.48 h -4.73 c -1.78,0 -3.25,-1.47 -3.25,-3.25 0,-1.79 1.47,-3.23 3.25,-3.23 z"
   id="path58" />

					<path
   class="st0"
   d="m 49.28,77.6 v 6.48 H 38.54 c -1.78,0 -3.25,-1.47 -3.25,-3.25 0,-1.78 1.47,-3.23 3.25,-3.23 z"
   id="path60" />

				</g>

			</g>

			<g
   id="g70">
				<path
   class="st0"
   d="m 118.3,49.52 -3.5,-15.18 -0.39,-1.68 -1.81,-7.89 -0.14,-0.54 -1.22,-5.37 H 52.19 l -7.07,30.67 h 0.18 c -0.01,0.19 -0.03,0.39 -0.03,0.59 0,2.4 0.91,4.58 2.45,6.21 h 1.55 v 27.72 h 64.9 V 57.63 c 2.41,-1.64 3.97,-4.39 3.97,-7.52 0,-0.2 -0.01,-0.4 -0.02,-0.59 z M 81.71,21.9 c 7.6,0 13.8,6.19 13.8,13.8 0,7.61 -6.19,13.8 -13.8,13.8 -7.61,0 -13.8,-6.19 -13.8,-13.8 0,-7.61 6.19,-13.8 13.8,-13.8 z m 29.33,58.98 H 104.6 V 61.64 H 94.67 V 80.88 H 52.36 v -21.9 c 0.64,0.16 1.32,0.23 2.02,0.23 4.5,0 8.23,-3.25 8.97,-7.54 h 0.28 c 0.74,4.3 4.47,7.54 8.97,7.54 4.5,0 8.23,-3.25 8.97,-7.54 h 0.28 c 0.74,4.3 4.47,7.54 8.97,7.54 4.5,0 8.23,-3.25 8.97,-7.54 h 0.28 c 0.74,4.3 4.47,7.54 8.95,7.54 0.69,0 1.36,-0.07 2.01,-0.22 V 80.88 Z M 81.71,46.62 c 6.02,0 10.92,-4.9 10.92,-10.92 0,-6.02 -4.9,-10.92 -10.92,-10.92 h -0.09 v 3.29 c 0,0 5.59,-0.72 6.13,3.05 0.53,3.78 -5.54,3.94 -5.54,3.94 v 0.42 c 0,0 5.32,-0.21 5.53,3.63 0.22,3.83 -4.26,3.72 -4.26,3.72 h -1.86 v 3.68 c -0.64,0 -1.26,-0.05 -1.86,-0.16 v -3.47 h -2.4 V 28.07 h 2.61 v -3.15 c -5.2,0.83 -9.19,5.35 -9.19,10.78 0,6.02 4.91,10.92 10.93,10.92 z M 81.62,24.37 c -0.56,0 -1.11,0.04 -1.65,0.12 v 0.43 c 0.54,-0.09 1.09,-0.14 1.65,-0.14 z"
   id="path66" />

				<path
   id="rect68"
   style="fill:#271865"
   d="m 57.400002,61.639999 h 19.95 V 74.61 h -19.95 z"
   class="st0" />

			</g>

		</g>
  <path
     class="st2"
     d="m 79.51,23.47 v 0.41 c -0.56,0.01 -1.11,0.05 -1.65,0.14 v -0.43 c 0.54,-0.08 1.09,-0.12 1.65,-0.12 z"
     id="path74" />
  <g
     id="g78">
			<path
   class="st2"
   d="m 77.86,23.59 v 0.43 c 0.54,-0.09 1.09,-0.14 1.65,-0.14 v -0.41 c -0.56,0 -1.11,0.04 -1.65,0.12 z"
   id="path76" />

		</g>
  <g
     id="g96">
			<g
   id="g88">
				<g
   id="g86">
					<path
   class="st1"
   d="m 47.17,53.42 v 6.44 H 16.06 c -1.78,0 -3.23,-1.45 -3.23,-3.23 0,-1.67 1.29,-3.04 2.92,-3.21 z"
   id="path80" />

					<path
   class="st1"
   d="m 47.17,64.96 v 6.48 h -4.73 c -1.78,0 -3.25,-1.47 -3.25,-3.25 0,-1.79 1.47,-3.23 3.25,-3.23 z"
   id="path82" />

					<path
   class="st1"
   d="m 47.17,74.67 v 6.48 H 36.43 c -1.78,0 -3.25,-1.47 -3.25,-3.25 0,-1.78 1.47,-3.23 3.25,-3.23 z"
   id="path84" />

				</g>

			</g>

			<g
   id="g94">
				<path
   class="st1"
   d="m 116.19,46.59 -3.5,-15.18 -0.39,-1.68 -1.81,-7.89 -0.14,-0.54 -1.22,-5.37 H 50.08 L 43.01,46.6 h 0.18 c -0.01,0.19 -0.03,0.39 -0.03,0.59 0,2.4 0.91,4.58 2.45,6.21 h 1.55 v 27.72 h 64.9 V 54.7 c 2.41,-1.64 3.97,-4.39 3.97,-7.52 0,-0.2 -0.01,-0.4 -0.02,-0.59 z M 79.6,18.97 c 7.6,0 13.8,6.19 13.8,13.8 0,7.61 -6.19,13.8 -13.8,13.8 -7.61,0 -13.8,-6.19 -13.8,-13.8 0,-7.61 6.19,-13.8 13.8,-13.8 z m 29.33,58.98 h -6.44 V 58.71 H 92.56 V 77.95 H 50.25 v -21.9 c 0.64,0.16 1.32,0.23 2.02,0.23 4.5,0 8.23,-3.25 8.97,-7.54 h 0.28 c 0.74,4.3 4.47,7.54 8.97,7.54 4.5,0 8.23,-3.25 8.97,-7.54 h 0.28 c 0.74,4.3 4.47,7.54 8.97,7.54 4.5,0 8.23,-3.25 8.97,-7.54 h 0.28 c 0.74,4.3 4.47,7.54 8.95,7.54 0.69,0 1.36,-0.07 2.01,-0.22 V 77.95 Z M 79.6,43.69 c 6.02,0 10.92,-4.9 10.92,-10.92 0,-6.02 -4.9,-10.92 -10.92,-10.92 h -0.09 v 3.29 c 0,0 5.59,-0.72 6.13,3.05 0.53,3.78 -5.54,3.94 -5.54,3.94 v 0.42 c 0,0 5.32,-0.21 5.53,3.63 0.22,3.83 -4.26,3.72 -4.26,3.72 h -1.86 v 3.68 c -0.64,0 -1.26,-0.05 -1.86,-0.16 v -3.47 h -2.4 V 25.13 h 2.61 v -3.15 c -5.2,0.83 -9.19,5.35 -9.19,10.78 0,6.03 4.91,10.93 10.93,10.93 z M 79.51,21.44 c -0.56,0 -1.11,0.04 -1.65,0.12 v 0.43 c 0.54,-0.09 1.09,-0.14 1.65,-0.14 z"
   id="path90" />

				<path
   id="rect92"
   style="fill:#ffffff"
   d="m 55.290001,58.700001 h 19.950001 v 12.97 H 55.290001 Z"
   class="st1" />

			</g>

		</g>
</g>

		
		
		
		
		
		
		
		
		
		
		
		
		
		
	</g>
  </g>
  <style
     type="text/css"
     id="style10">
	.st0{fill:#271865;}
	.st1{fill:#FFFFFF;}
	.st2{fill:#500686;}
</style>
</svg>
